<svg width="22" height="25" viewBox="0 0 22 25" fill="none" xmlns="http://www.w3.org/2000/svg">
<path d="M17.1875 8.15625V6.625C17.1875 3.24764 14.3837 0.5 10.9375 0.5C7.49121 0.5 4.6875 3.24764 4.6875 6.625V8.15625H0V21.1719C0 23.2861 1.74888 25 3.90625 25H17.9688C20.1261 25 21.875 23.2861 21.875 21.1719V8.15625H17.1875ZM7.8125 6.625C7.8125 4.93632 9.21436 3.5625 10.9375 3.5625C12.6606 3.5625 14.0625 4.93632 14.0625 6.625V8.15625H7.8125V6.625ZM15.625 12.3672C14.9778 12.3672 14.4531 11.853 14.4531 11.2188C14.4531 10.5845 14.9778 10.0703 15.625 10.0703C16.2722 10.0703 16.7969 10.5845 16.7969 11.2188C16.7969 11.853 16.2722 12.3672 15.625 12.3672ZM6.25 12.3672C5.60278 12.3672 5.07812 11.853 5.07812 11.2188C5.07812 10.5845 5.60278 10.0703 6.25 10.0703C6.89722 10.0703 7.42188 10.5845 7.42188 11.2188C7.42188 11.853 6.89722 12.3672 6.25 12.3672Z" fill="black"/>
</svg>
