<svg width="28" height="28" viewBox="0 0 28 28" fill="none" xmlns="http://www.w3.org/2000/svg">
<path d="M14 0.4375C6.26613 0.4375 0 6.50781 0 14C0 21.4922 6.26613 27.5625 14 27.5625C21.7339 27.5625 28 21.4922 28 14C28 6.50781 21.7339 0.4375 14 0.4375ZM14 5.6875C16.7435 5.6875 18.9677 7.84219 18.9677 10.5C18.9677 13.1578 16.7435 15.3125 14 15.3125C11.2565 15.3125 9.03226 13.1578 9.03226 10.5C9.03226 7.84219 11.2565 5.6875 14 5.6875ZM14 24.5C10.6863 24.5 7.71694 23.0453 5.72984 20.7703C6.79113 18.8344 8.86855 17.5 11.2903 17.5C11.4258 17.5 11.5613 17.5219 11.6911 17.5602C12.425 17.7898 13.1927 17.9375 14 17.9375C14.8073 17.9375 15.5806 17.7898 16.3089 17.5602C16.4387 17.5219 16.5742 17.5 16.7097 17.5C19.1315 17.5 21.2089 18.8344 22.2702 20.7703C20.2831 23.0453 17.3137 24.5 14 24.5Z" fill="black"/>
</svg>
